<?xml version="1.0" standalone="no"?>
<!DOCTYPE svg PUBLIC "-//W3C//DTD SVG 20010904//EN"
 "http://www.w3.org/TR/2001/REC-SVG-20010904/DTD/svg10.dtd">
<svg version="1.0" xmlns="http://www.w3.org/2000/svg"
 width="1024.000000pt" height="1024.000000pt" viewBox="0 0 1024.000000 1024.000000"
 preserveAspectRatio="xMidYMid meet">

<g transform="translate(0.000000,1024.000000) scale(0.100000,-0.100000)"
fill="#000000" stroke="none">
<path d="M0 5120 l0 -5120 5120 0 5120 0 0 5120 0 5120 -5120 0 -5120 0 0
-5120z m4096 2592 c-3 -5 -76 -43 -163 -86 -87 -42 -216 -106 -286 -142 -71
-37 -130 -64 -133 -61 -6 5 92 59 348 191 l167 86 -77 2 c-75 2 -75 2 28 8 58
3 109 7 113 8 5 1 6 -2 3 -6z m-343 -19 c-7 -2 -19 -2 -25 0 -7 3 -2 5 12 5
14 0 19 -2 13 -5z m-849 -209 c9 -3 16 -12 16 -19 0 -17 -23 -25 -69 -25 -20
0 -42 -5 -48 -11 -6 -6 -105 -55 -219 -108 -423 -198 -431 -202 -442 -235 -7
-23 -10 -26 -11 -10 -1 11 5 28 12 37 13 18 170 96 465 232 105 49 192 95 192
102 0 14 47 42 72 43 9 0 23 -3 32 -6z m591 -74 c-3 -5 -12 -10 -18 -10 -7 0
-6 4 3 10 19 12 23 12 15 0z m1125 -139 c0 -27 -81 -104 -184 -175 -39 -26
-72 -49 -73 -50 -2 -2 3 -25 11 -52 22 -77 29 -157 15 -187 -27 -59 -67 -36
-127 75 -23 43 -42 66 -50 63 -7 -3 -55 -34 -106 -70 -89 -62 -93 -66 -99
-109 -4 -24 -12 -55 -18 -70 l-12 -26 -68 65 c-41 40 -89 75 -123 90 -31 14
-56 29 -56 34 0 13 88 22 157 15 l63 -7 72 56 c112 86 123 95 118 100 -3 2
-41 12 -85 22 -81 17 -165 56 -165 77 0 8 55 9 196 4 l197 -6 51 39 c90 68
155 103 209 111 75 11 77 11 77 1z m-2456 -257 c17 -17 22 -39 7 -29 -5 3 -11
-5 -13 -17 -5 -33 -25 -33 -33 2 -4 16 -11 28 -16 24 -5 -3 -9 -1 -9 5 0 10
28 30 42 31 4 0 14 -7 22 -16z m0 -92 c2 -4 10 -46 16 -92 16 -121 19 -129 52
-146 26 -13 29 -19 24 -47 -6 -29 -5 -30 6 -9 14 27 49 29 73 2 10 -11 22 -17
26 -14 5 3 22 -8 39 -24 l29 -30 -30 -6 c-17 -3 -28 -10 -24 -15 3 -6 -4 -15
-16 -21 -16 -9 -24 -8 -37 3 -9 7 -32 20 -50 27 -26 10 -31 17 -26 34 6 20 5
20 -20 -3 -18 -17 -26 -35 -26 -57 0 -28 5 -34 40 -48 22 -9 49 -16 60 -16 12
0 20 -7 20 -17 1 -16 3 -15 19 3 l17 22 20 -29 c10 -16 25 -29 33 -29 11 0 11
-3 -2 -18 -11 -11 -13 -22 -7 -32 7 -11 -2 -20 -38 -37 -26 -13 -56 -23 -68
-23 -28 0 -59 -24 -49 -39 4 -7 16 -11 26 -8 11 3 19 1 19 -5 0 -5 5 -6 10 -3
22 14 8 -15 -16 -34 -18 -14 -41 -21 -70 -21 -54 0 -81 -9 -62 -21 9 -6 6 -9
-10 -9 -41 0 -79 -27 -86 -60 -5 -29 -34 -61 -105 -118 -24 -19 -24 -21 -11
-63 21 -66 20 -90 -4 -87 -19 3 -25 15 -45 93 l-10 40 -63 -3 c-51 -3 -68 -9
-90 -29 -54 -51 -61 -130 -17 -174 22 -22 20 -37 -3 -23 -23 15 -59 12 -53 -4
4 -12 3 -13 -10 -2 -18 15 -20 0 -2 -20 6 -8 2 -6 -11 5 -13 11 -19 21 -13 23
6 2 9 8 6 13 -4 5 1 6 9 3 11 -4 13 0 9 16 -3 12 -11 19 -18 16 -12 -4 -20 12
-31 68 -2 11 -8 24 -14 30 -15 15 -13 -11 6 -63 19 -57 12 -64 -10 -10 -10 23
-26 53 -37 67 -10 14 -19 32 -18 41 0 9 5 3 11 -12 11 -30 34 -32 32 -3 -2 16
0 16 20 -1 21 -18 21 -18 4 3 -10 11 -18 27 -18 35 0 12 -2 11 -10 -1 -9 -13
-10 -13 -10 0 0 9 8 27 17 40 10 14 17 38 16 55 -2 29 -2 29 6 5 l9 -25 1 27
c1 34 37 118 51 118 5 0 10 7 10 16 0 25 49 116 71 132 10 7 19 18 19 23 0 5
5 15 10 22 6 7 29 37 51 67 22 30 56 70 75 89 21 20 33 40 29 49 -3 9 0 12 9
9 10 -4 13 -1 9 8 -3 8 -10 12 -16 8 -5 -3 -7 -1 -3 5 3 5 0 12 -6 15 -7 2 0
8 16 12 19 5 31 4 33 -2 2 -6 13 -9 23 -6 11 3 20 1 20 -5 0 -6 -8 -12 -17
-15 -10 -2 -3 -4 15 -4 22 0 29 3 20 8 -9 6 -6 9 9 9 22 0 51 36 38 48 -3 3
-20 1 -38 -6 -29 -10 -30 -10 -13 3 11 8 28 15 38 15 10 0 18 5 18 10 0 13 -4
13 -45 -4 -54 -23 -51 0 4 26 56 26 59 32 68 143 3 44 11 83 17 87 15 10 44
10 50 0z m1275 -16 c28 12 32 12 22 1 -14 -18 -136 -74 -176 -82 -24 -4 -21
-1 14 15 49 23 73 48 66 69 -4 11 -1 10 18 -2 20 -13 27 -13 56 -1z m-1204
-36 c-3 -5 -16 -10 -28 -9 -21 0 -21 1 -2 9 28 12 37 12 30 0z m-145 -50 c0
-6 -8 -14 -17 -17 -10 -4 -58 -29 -108 -56 -290 -159 -516 -424 -609 -714 -46
-143 -58 -219 -58 -383 -1 -122 -3 -145 -10 -110 -5 25 -7 106 -4 180 10 277
118 555 290 749 115 129 286 259 430 327 78 37 86 39 86 24z m1790 -64 c0 -5
-204 -137 -273 -175 -32 -18 -60 -31 -63 -28 -11 11 136 114 225 159 92 45
111 53 111 44z m-525 -84 c71 -50 105 -83 98 -95 -3 -6 -1 -7 4 -4 11 7 133
-123 133 -141 0 -16 -152 -167 -199 -197 -30 -21 -47 -25 -70 -20 -24 5 -32 2
-41 -15 -6 -11 -15 -18 -21 -15 -5 4 -9 -3 -9 -14 0 -21 -17 -37 -28 -26 -3 3
0 10 8 15 11 7 8 10 -13 10 -32 0 -98 25 -96 37 5 31 -3 63 -16 63 -17 0 -20
16 -5 25 6 4 8 11 4 16 -3 5 -2 8 3 7 12 -3 77 33 86 49 7 11 12 12 23 2 8 -6
17 -10 19 -7 7 7 -5 38 -15 38 -15 0 -120 93 -120 106 0 7 -8 18 -17 23 -17
10 -16 11 4 17 12 3 32 22 43 42 16 26 24 32 33 23 6 -6 18 -11 27 -11 13 0
125 -43 280 -108 8 -3 4 7 -10 25 -27 34 -80 77 -193 154 -62 43 -67 49 -43
49 17 0 25 4 20 11 -9 15 52 -17 111 -59z m-1052 24 c-4 -19 -3 -20 10 -4 11
14 23 16 53 11 21 -3 50 -6 64 -5 24 0 24 0 5 -14 -11 -8 -24 -13 -31 -10 -6
2 -17 0 -24 -4 -8 -5 -22 -4 -31 1 -11 6 -20 5 -24 -1 -10 -16 -55 -12 -55 4
0 8 -5 16 -12 18 -19 7 -2 23 25 24 20 1 24 -2 20 -20z m241 -15 c4 -5 50 -12
104 -16 131 -9 135 -10 140 -24 2 -7 -4 -19 -14 -27 -14 -11 -15 -17 -6 -20 6
-3 12 -12 12 -19 0 -7 7 -15 15 -19 8 -3 15 -1 15 4 0 6 7 10 15 10 8 0 15 -4
15 -9 0 -5 9 -7 20 -4 11 3 20 0 20 -6 0 -6 -5 -11 -11 -11 -6 0 -8 -9 -4 -21
6 -19 4 -21 -16 -15 -25 8 -55 14 -76 15 -7 1 -13 8 -13 16 0 8 -5 15 -11 15
-6 0 -8 9 -4 21 6 19 4 20 -32 13 -51 -9 -70 -20 -78 -44 -4 -11 -20 -27 -36
-36 -19 -10 -32 -25 -36 -44 -3 -17 -9 -30 -12 -30 -4 0 -17 21 -29 48 -16 38
-20 59 -15 107 3 33 6 70 5 83 0 22 21 31 32 13z m-734 -105 c0 -2 -8 -10 -17
-17 -16 -13 -17 -12 -4 4 13 16 21 21 21 13z m2090 -144 c-162 -233 -438 -534
-680 -742 -140 -119 -410 -296 -595 -388 -424 -212 -922 -306 -1257 -236 -186
38 -341 146 -383 264 -48 136 30 346 190 515 32 34 40 40 26 18 -85 -128 -132
-316 -100 -400 34 -92 129 -167 261 -204 75 -22 101 -24 273 -23 163 1 208 5
317 28 369 76 715 220 1059 442 134 86 341 242 484 365 125 107 402 379 431
424 9 14 19 23 22 20 3 -3 -19 -40 -48 -83z m-874 1 c-3 -7 -1 -15 4 -18 4 -3
10 1 13 7 3 10 9 8 24 -4 11 -10 25 -18 31 -18 7 0 12 -7 12 -15 0 -15 17 -20
55 -16 19 1 18 0 -3 -14 -12 -9 -27 -13 -34 -9 -6 4 -8 3 -5 -3 4 -6 -10 -13
-34 -17 -22 -3 -42 -13 -45 -21 -10 -24 -32 -17 -49 15 -14 27 -14 29 2 24 16
-5 16 -4 -1 10 -16 13 -17 18 -6 31 8 10 10 29 6 57 l-7 42 21 -19 c11 -10 18
-25 16 -32z m-1400 -123 c-36 -54 -42 -51 -8 4 15 24 29 42 31 40 2 -2 -8 -22
-23 -44z m1364 -15 c0 -5 -5 -3 -10 5 -5 8 -10 20 -10 25 0 6 5 3 10 -5 5 -8
10 -19 10 -25z m-560 -8 c14 -11 25 -57 15 -57 -13 0 -85 33 -85 39 0 13 24
31 40 31 8 0 22 -6 30 -13z m-766 -37 c-5 -5 -10 3 -11 18 -1 22 0 24 9 8 6
-10 6 -22 2 -26z m-80 -5 c-4 -8 -11 -15 -16 -15 -6 0 -5 6 2 15 7 8 14 15 16
15 2 0 1 -7 -2 -15z m-24 -32 c0 -5 -10 -19 -21 -33 l-21 -25 18 33 c18 32 24
38 24 25z m1616 -58 c32 -21 30 -38 -8 -69 -18 -14 -52 -40 -75 -58 -23 -18
-42 -39 -42 -47 -1 -8 -4 -12 -7 -9 -3 3 -6 44 -8 89 -1 46 -6 92 -10 102 -8
18 -4 19 59 13 37 -3 78 -12 91 -21z m3143 -1 c21 -4 31 -12 31 -24 0 -37 -10
-46 -43 -42 -19 2 -49 -3 -69 -11 -60 -25 -92 -82 -122 -219 l-6 -28 66 0 66
0 -7 -32 c-11 -48 -11 -48 -79 -48 l-63 0 -28 -147 c-67 -359 -78 -411 -96
-453 -11 -25 -32 -57 -46 -72 -37 -39 -121 -68 -193 -68 -56 0 -60 1 -60 24 0
20 6 24 41 29 48 6 94 45 109 91 5 17 16 72 24 121 30 188 67 391 76 425 14
50 14 50 -36 50 -38 0 -45 3 -40 16 3 9 6 27 6 40 0 22 4 24 49 24 l48 0 13
63 c17 86 56 162 104 200 68 54 168 78 255 61z m-1683 -20 c27 -9 50 -17 51
-18 6 -4 -37 -110 -44 -107 -4 2 -25 12 -45 22 -87 44 -190 30 -243 -32 -51
-62 -25 -133 79 -210 152 -113 186 -160 186 -257 0 -75 -44 -167 -100 -212
-84 -67 -208 -96 -339 -79 -69 8 -168 47 -164 65 10 43 48 134 51 123 16 -52
124 -109 205 -109 127 1 208 117 145 207 -13 18 -65 64 -116 103 -104 80 -137
123 -151 196 -16 84 9 164 71 220 51 46 63 54 125 80 73 30 212 33 289 8z
m-3121 -44 c-4 -23 -9 -39 -12 -36 -3 2 -2 23 2 46 4 23 9 39 12 36 3 -2 2
-23 -2 -46z m4283 4 c33 -23 31 -87 -4 -119 -29 -27 -80 -33 -114 -15 -25 13
-41 65 -30 94 19 52 100 74 148 40z m-4263 -61 c-4 -38 -11 -75 -16 -83 -7
-11 -8 -8 -5 10 3 14 8 51 11 83 4 31 9 57 12 57 2 0 1 -30 -2 -67z m2303 -15
c15 -57 8 -59 -10 -3 -9 25 -12 45 -8 45 4 0 12 -19 18 -42z m-2271 -10 c-3
-8 -6 -5 -6 6 -1 11 2 17 5 13 3 -3 4 -12 1 -19z m4998 -45 c-7 -27 -15 -67
-19 -90 l-6 -43 52 -2 c29 -1 61 -2 71 -1 18 0 21 -16 11 -54 -6 -21 -12 -23
-79 -23 l-74 0 -15 -72 c-33 -156 -56 -282 -56 -304 0 -13 10 -34 21 -45 24
-24 66 -22 119 5 30 14 30 14 30 -13 0 -25 -8 -32 -62 -57 -51 -23 -77 -28
-136 -29 -71 0 -75 1 -104 34 -28 32 -30 37 -25 100 4 57 49 316 63 362 3 13
-5 18 -36 23 -29 4 -40 11 -40 24 0 27 12 37 55 47 38 10 39 12 55 75 l16 65
64 22 c36 12 74 22 86 23 20 0 21 -2 9 -47z m-2696 -73 c22 -79 25 -332 7
-445 -59 -360 -272 -690 -571 -887 -158 -103 -256 -147 -440 -194 -99 -25
-127 -28 -280 -29 -181 0 -235 8 -400 62 -158 51 -333 152 -450 259 l-50 46
60 -47 c121 -93 195 -137 209 -126 8 6 21 8 30 5 15 -6 15 -7 1 -18 -14 -10
-7 -16 42 -38 107 -50 216 -89 254 -91 20 -1 35 -5 32 -9 -2 -5 6 -8 19 -8 13
0 34 -3 48 -6 20 -4 22 -3 10 5 -14 10 -7 16 13 12 5 -1 6 3 2 9 -3 5 -15 10
-25 10 -25 0 -122 21 -118 25 2 2 48 -3 103 -12 183 -28 443 -4 626 57 96 32
238 102 336 165 49 30 77 47 64 35 -13 -11 -19 -20 -14 -20 43 0 265 232 248
260 -4 6 -1 9 5 8 7 -2 20 13 30 32 11 19 24 41 30 47 6 7 10 15 10 18 -1 22
1 25 12 19 7 -4 8 -3 4 4 -4 6 5 37 20 69 40 89 83 227 100 326 12 67 14 141
11 303 -2 118 0 211 3 207 4 -4 13 -28 19 -53z m-115 -50 c6 -23 6 -23 -7 -8
-8 10 -16 15 -19 12 -3 -2 -3 7 0 22 5 29 14 20 26 -26z m-78 15 c-7 -19 17
-15 26 5 5 11 7 9 7 -8 1 -12 8 -34 17 -47 9 -14 17 -47 17 -77 1 -28 3 -46 5
-40 9 28 19 -1 12 -33 -6 -28 -5 -34 4 -26 7 6 16 8 19 4 4 -3 7 5 7 20 0 14
4 28 9 31 5 4 5 -10 0 -32 -5 -20 -11 -65 -14 -99 -5 -68 -38 -177 -61 -200
-7 -8 -14 -24 -15 -36 -1 -20 -2 -20 -8 3 -7 23 -9 22 -20 -18 -11 -38 -14
-42 -28 -30 -15 12 -15 11 -3 -11 11 -21 10 -23 -3 -18 -11 4 -14 2 -10 -9 7
-19 -17 -65 -30 -57 -5 3 -8 0 -5 -7 6 -19 -39 -60 -60 -54 -11 4 -13 3 -5 -3
9 -6 10 -18 4 -38 -9 -29 -9 -29 -11 -5 -2 27 -4 25 -25 -37 -4 -13 -11 -23
-16 -23 -5 0 -9 -5 -9 -10 0 -6 -9 -21 -20 -32 -11 -12 -19 -27 -17 -33 2 -5
0 -20 -4 -32 -5 -13 -4 -25 1 -28 14 -8 32 33 26 58 -3 12 -3 16 0 9 5 -10 14
-5 35 17 15 17 31 31 35 31 4 0 -4 -12 -18 -27 -14 -16 -33 -41 -42 -58 -17
-33 -99 -125 -111 -125 -4 0 -2 6 4 13 6 8 8 17 5 20 -3 3 -3 11 1 17 6 9 9 9
15 1 5 -9 11 -7 21 5 12 16 12 17 -4 11 -10 -4 -16 -3 -13 1 2 4 -3 8 -13 8
-13 0 -17 -8 -16 -28 1 -15 -2 -28 -7 -28 -5 0 -8 -7 -6 -16 2 -9 -8 -23 -22
-33 -23 -15 -24 -15 -15 4 4 11 11 67 15 125 4 58 14 124 23 148 27 70 31 132
12 177 -13 31 -15 56 -9 113 6 70 6 72 -15 69 -11 -2 -27 -11 -34 -21 -7 -10
-22 -17 -32 -15 -17 4 -18 5 -2 21 9 9 17 20 17 23 0 15 82 106 209 232 74 73
135 133 137 133 1 0 10 -23 19 -51 20 -58 30 -61 14 -4 -15 54 -40 90 -50 73
-5 -7 -9 -8 -9 -3 1 16 26 45 40 45 7 0 10 3 7 6 -3 4 -2 15 4 25 12 23 24 25
15 4z m124 -17 c0 -30 -1 -31 -15 -12 -8 10 -14 24 -15 29 0 6 5 3 10 -5 8
-13 10 -12 10 3 0 9 2 17 5 17 3 0 5 -14 5 -32z m1063 -70 c4 -35 9 -129 13
-210 4 -82 10 -148 14 -148 10 0 137 289 157 360 l18 60 66 0 66 0 17 -187
c24 -272 21 -263 67 -173 53 103 89 220 92 296 l2 64 68 0 c37 0 67 -4 67 -8
0 -5 -7 -33 -16 -63 -16 -56 -60 -142 -192 -382 l-76 -138 -56 3 -55 3 -25
177 c-14 98 -27 178 -30 178 -3 0 -47 -81 -99 -180 l-94 -180 -58 0 c-43 0
-59 4 -59 14 0 7 -13 136 -30 286 -16 150 -30 276 -30 281 0 5 38 9 84 9 l83
0 6 -62z m907 51 c0 -7 -18 -104 -40 -218 -22 -113 -46 -240 -53 -281 l-13
-75 -81 -3 -81 -3 10 48 c5 26 24 134 43 238 19 105 39 216 46 248 l12 57 78
0 c52 0 79 -4 79 -11z m-3763 -53 c15 -8 52 -24 81 -37 28 -12 52 -26 52 -29
0 -10 -49 0 -56 11 -9 15 -26 10 -20 -7 3 -8 2 -12 -4 -9 -6 3 -10 12 -10 18
0 12 -51 34 -103 44 -15 3 -30 9 -33 14 -8 14 62 10 93 -5z m-250 -50 c0 -8
-6 -12 -15 -9 -11 5 -11 7 0 14 7 5 13 9 14 9 0 0 1 -6 1 -14z m48 -34 c-3 -3
-11 0 -18 7 -9 10 -8 11 6 5 10 -3 15 -9 12 -12z m32 -74 c-3 -8 -6 -5 -6 6
-1 11 2 17 5 13 3 -3 4 -12 1 -19z m266 -21 c14 -9 28 -13 32 -8 3 5 -1 12 -7
14 -8 3 -6 6 5 6 9 1 17 -4 17 -10 0 -5 17 -17 38 -26 l37 -16 -35 -15 c-52
-21 -222 -63 -229 -56 -3 4 0 9 7 11 6 3 9 9 6 15 -4 7 -9 6 -14 -2 -4 -7 -13
-9 -19 -6 -8 5 -6 12 5 23 15 15 14 17 -8 30 -22 14 -22 14 10 9 28 -5 32 -3
28 12 -12 37 79 51 127 19z m-786 -24 c-3 -10 -5 -4 -5 12 0 17 2 24 5 18 2
-7 2 -21 0 -30z m528 -11 c-3 -3 -11 0 -18 7 -9 10 -8 11 6 5 10 -3 15 -9 12
-12z m48 1 c-7 -2 -19 -2 -25 0 -7 3 -2 5 12 5 14 0 19 -2 13 -5z m-956 -105
c-3 -8 -6 -5 -6 6 -1 11 2 17 5 13 3 -3 4 -12 1 -19z m14 -178 c11 -47 24
-101 30 -121 20 -80 8 -106 -37 -74 -55 38 -69 154 -36 289 16 67 17 69 20 31
1 -22 11 -78 23 -125z m2722 -47 c-12 -32 -42 -88 -43 -80 0 11 39 97 45 97 2
0 1 -8 -2 -17z m-57 -131 c-15 -15 -15 -15 -4 10 7 15 15 23 17 17 2 -6 -4
-18 -13 -27z m-996 -70 c-48 -29 -204 -102 -217 -102 -10 1 238 126 252 128 6
1 -10 -11 -35 -26z m2920 -12 c0 -5 -17 -10 -37 -10 -969 -4 -1463 -1 -1463
10 0 7 257 10 750 10 493 0 750 -3 750 -10z m3540 0 c0 -14 -264 -16 -1867
-12 -734 1 -1113 5 -1113 12 0 7 503 10 1490 10 987 0 1490 -3 1490 -10z
m-6430 -19 c0 -10 -42 -39 -62 -43 -7 -2 -16 -7 -20 -13 -5 -6 -8 -5 -8 3 0 7
18 19 40 28 22 9 40 20 40 25 0 5 2 9 5 9 3 0 5 -4 5 -9z m-270 -80 c-8 -5
-26 -11 -40 -15 -21 -5 -20 -3 5 9 32 15 60 20 35 6z m151 -33 c-17 -18 -34
-42 -37 -52 -10 -31 -66 -86 -87 -86 -10 0 -21 -9 -24 -20 -5 -18 -23 -29 -23
-14 0 15 22 44 34 44 8 0 19 7 26 15 10 12 8 16 -9 23 -21 8 -21 8 -4 28 10
12 23 19 30 17 6 -2 19 8 29 22 10 16 20 22 24 16 4 -7 17 1 35 19 16 16 30
28 33 25 2 -2 -10 -19 -27 -37z m1713 -48 c8 0 25 -12 40 -26 72 -73 -21 -190
-120 -149 -18 7 -37 22 -43 33 -16 30 -13 84 4 110 16 22 70 43 93 36 8 -2 19
-4 26 -4z m1684 -1 c39 -14 31 -33 -11 -25 -28 6 -57 -7 -57 -24 0 -4 17 -15
38 -23 47 -19 65 -39 60 -69 -4 -31 -50 -52 -94 -44 -53 11 -44 35 13 33 38
-2 48 2 51 16 2 10 -4 19 -15 23 -10 3 -33 12 -51 20 -29 12 -33 18 -30 46 2
23 11 36 28 45 31 16 30 16 68 2z m641 0 c33 -11 61 -52 61 -88 0 -66 -64
-109 -134 -90 -19 5 -42 20 -51 32 -32 45 -11 121 40 143 37 16 44 17 84 3z
m-2132 -51 c12 -29 24 -62 28 -73 5 -16 12 -5 33 50 19 47 34 71 46 73 10 2
17 0 15 -5 -2 -4 -19 -48 -38 -96 -24 -62 -38 -87 -49 -85 -8 2 -29 41 -48 88
-38 97 -39 100 -21 100 7 0 23 -24 34 -52z m333 39 c0 -8 -14 -11 -45 -9 -42
4 -45 2 -45 -21 0 -27 16 -37 62 -37 19 0 28 -4 26 -12 -5 -14 -9 -15 -58 -17
-25 -1 -30 -5 -30 -26 0 -23 4 -25 45 -25 33 0 45 -4 45 -15 0 -12 -13 -15
-60 -15 l-60 0 0 95 0 95 60 0 c42 0 60 -4 60 -13z m232 -4 c23 -20 23 -51 1
-75 -17 -19 -17 -21 0 -50 35 -61 3 -69 -37 -8 -35 53 -56 53 -56 -1 0 -28 -4
-39 -12 -37 -9 3 -14 34 -16 96 l-3 92 52 0 c35 0 59 -6 71 -17z m236 -2 c4
-11 -2 -12 -23 -7 -33 9 -65 -1 -65 -19 0 -8 21 -25 48 -37 40 -20 47 -27 47
-53 0 -39 -42 -62 -92 -49 -49 13 -41 30 11 26 69 -6 71 36 3 53 -16 4 -35 18
-44 31 -14 22 -14 26 1 50 15 22 23 25 63 22 29 -2 48 -8 51 -17z m242 10 c0
-6 -21 -11 -47 -13 -41 -3 -48 -6 -51 -25 -3 -20 1 -23 30 -23 35 0 67 -15 56
-25 -3 -4 -25 -9 -47 -12 -35 -5 -41 -9 -41 -29 0 -22 4 -24 50 -24 38 0 50
-4 50 -15 0 -12 -14 -15 -65 -15 l-65 0 0 95 0 95 65 0 c36 0 65 -4 65 -9z
m223 -79 c20 -48 37 -91 37 -95 0 -18 -28 -5 -38 18 -10 21 -19 25 -52 25 -33
0 -42 -4 -52 -25 -11 -25 -38 -35 -38 -14 0 6 16 48 36 95 48 110 59 110 107
-4z m621 82 c32 -12 15 -23 -35 -22 -58 2 -79 -15 -79 -64 0 -42 33 -70 80
-67 49 4 61 -7 24 -21 -65 -25 -144 26 -144 92 0 45 48 88 98 88 22 0 47 -3
56 -6z m493 -58 l48 -65 3 65 c2 48 7 64 17 64 12 0 15 -19 15 -95 0 -118 -11
-122 -77 -29 -53 72 -61 70 -62 -18 -1 -36 -5 -48 -16 -48 -12 0 -15 17 -15
95 0 88 2 95 20 95 12 0 37 -23 67 -64z m311 45 c4 -11 -2 -13 -27 -8 -70 14
-83 -22 -17 -51 54 -24 65 -54 31 -88 -26 -26 -49 -30 -91 -14 -39 15 -18 33
24 21 24 -7 36 -6 47 6 20 19 12 30 -36 50 -52 20 -66 46 -44 79 14 22 22 25
62 22 29 -2 48 -8 51 -17z m142 -49 c0 -75 9 -92 52 -92 35 0 48 28 48 106 0
41 4 54 15 54 12 0 15 -14 15 -66 0 -77 -9 -97 -49 -114 -34 -14 -72 -8 -95
16 -22 22 -23 164 -1 164 12 0 15 -14 15 -68z m270 -12 l0 -80 46 0 c69 0 52
-24 -19 -28 l-57 -3 0 96 c0 78 3 95 15 95 12 0 15 -16 15 -80z m304 67 c-2
-7 -17 -13 -32 -12 -27 0 -27 0 -32 -82 -4 -58 -8 -80 -16 -75 -7 4 -12 18
-12 32 0 128 0 130 -32 130 -16 0 -30 5 -30 10 0 6 33 10 80 10 61 0 78 -3 74
-13z m200 -77 c41 -103 40 -100 23 -100 -8 0 -19 11 -25 25 -10 21 -19 25 -52
25 -33 0 -42 -4 -52 -25 -13 -29 -43 -35 -35 -7 3 9 20 52 39 94 44 104 56
102 102 -12z m214 25 c27 -35 52 -62 56 -58 3 3 6 33 6 65 0 32 4 58 10 58 13
0 22 -56 18 -125 -4 -86 -23 -85 -85 4 l-48 71 -3 -70 c-2 -53 -6 -70 -17 -70
-9 0 -15 10 -15 23 -1 12 -3 55 -7 95 -5 68 -4 72 16 72 13 0 37 -22 69 -65z
m349 50 c2 -6 -18 -10 -48 -10 -57 0 -79 -18 -79 -67 0 -43 36 -71 88 -65 49
5 61 -17 13 -26 -40 -8 -97 10 -116 36 -30 43 -15 119 28 137 28 12 109 8 114
-5z m144 -21 l22 -36 23 29 c13 15 23 31 24 36 0 4 9 7 20 7 19 0 17 -5 -15
-52 -26 -40 -35 -63 -35 -95 0 -32 -4 -43 -15 -43 -11 0 -15 11 -15 40 0 26
-10 57 -30 90 -34 58 -35 60 -16 60 8 0 24 -16 37 -36z m-6337 -23 c-9 -9 -34
-9 -34 -1 0 5 9 8 20 7 10 -1 17 -3 14 -6z m-54 -21 c0 -5 -5 -10 -11 -10 -5
0 -7 5 -4 10 3 6 8 10 11 10 2 0 4 -4 4 -10z m-180 -55 c0 -5 -5 -3 -10 5 -5
8 -10 20 -10 25 0 6 5 3 10 -5 5 -8 10 -19 10 -25z m168 -5 c-4 -18 -47 -24
-68 -11 -18 12 -7 26 12 15 7 -5 22 -10 33 -11 17 -2 16 0 -5 11 l-25 14 28
-1 c19 -1 27 -7 25 -17z m-72 -47 c-3 -3 6 -22 20 -40 14 -19 24 -37 21 -40
-3 -2 -13 7 -22 21 -10 14 -21 23 -26 20 -5 -3 -6 2 -3 10 4 10 1 16 -7 16
-12 0 -12 2 0 9 9 6 10 11 2 15 -6 4 -11 12 -11 17 0 6 7 3 16 -6 9 -9 14 -19
10 -22z m24 -81 c0 -5 12 -13 28 -19 l27 -12 -30 6 c-36 7 -70 33 -42 33 9 0
17 -4 17 -8z m-171 -98 c14 -12 -19 -1 -35 12 -18 14 -18 14 6 3 14 -6 27 -13
29 -15z m120 -30 c10 -9 -45 -3 -59 6 -11 7 -5 8 20 4 19 -4 37 -8 39 -10z
m726 -205 c69 -21 218 -89 211 -96 -2 -2 -32 9 -67 26 -35 16 -91 39 -124 51
-122 45 -130 53 -20 19z m-128 -15 c-3 -3 -12 -4 -19 -1 -8 3 -5 6 6 6 11 1
17 -2 13 -5z m93 -15 c0 -6 7 -8 16 -5 21 8 65 -4 58 -15 -3 -5 2 -9 10 -9 8
0 17 -4 21 -10 3 -5 -16 -3 -42 6 -26 8 -60 17 -76 21 -36 8 -45 23 -13 23 14
0 26 -5 26 -11z m285 -79 c3 -6 -1 -7 -9 -4 -18 7 -21 14 -7 14 6 0 13 -4 16
-10z m55 -36 c0 -2 -9 0 -20 6 -11 6 -20 13 -20 16 0 2 9 0 20 -6 11 -6 20
-13 20 -16z m91 -61 c13 -16 12 -17 -3 -4 -10 7 -18 15 -18 17 0 8 8 3 21 -13z"/>
<path d="M2082 6630 c0 -14 2 -19 5 -12 2 6 2 18 0 25 -3 6 -5 1 -5 -13z"/>
<path d="M2117 6632 c-23 -5 -19 -44 6 -48 9 -1 17 3 18 9 1 7 5 1 9 -13 6
-18 8 -20 9 -7 1 10 6 15 12 11 7 -4 9 2 7 16 -3 24 -31 39 -61 32z"/>
<path d="M1930 6605 c0 -3 7 -14 16 -23 15 -14 16 -14 13 3 -4 17 -29 35 -29
20z"/>
<path d="M2073 6507 c-4 -7 -25 -25 -45 -40 -21 -15 -38 -34 -38 -41 0 -22 47
-58 67 -52 17 5 19 2 15 -24 -5 -36 -3 -36 42 -9 48 28 90 100 81 140 -4 19
-12 29 -20 25 -7 -2 -18 1 -24 7 -9 9 -14 8 -21 -3 -8 -12 -13 -13 -29 -3 -16
10 -22 10 -28 0z"/>
<path d="M1660 5771 c0 -6 4 -13 10 -16 6 -3 7 1 4 9 -7 18 -14 21 -14 7z"/>
<path d="M3250 6533 c0 -4 12 -20 27 -35 36 -38 12 -36 -32 3 -35 31 -46 29
-21 -3 20 -27 87 -78 101 -78 27 0 25 32 -2 53 -16 12 -38 32 -50 44 -13 12
-23 19 -23 16z"/>
<path d="M1403 5220 c12 -8 17 -24 17 -55 0 -40 -3 -45 -22 -46 -22 -1 -23 -1
-2 -7 12 -4 20 -14 19 -22 -2 -11 11 -16 49 -20 86 -8 350 -2 354 9 2 5 18 8
35 7 18 -2 22 -1 10 1 -13 2 -23 8 -23 13 0 5 -8 11 -17 13 -17 4 -17 5 0 6
13 1 17 10 17 45 0 26 -5 47 -12 50 -7 4 3 4 22 1 24 -4 31 -2 24 5 -7 7 -47
7 -127 0 -108 -9 -241 -7 -327 5 -28 4 -31 3 -17 -5z m64 -136 c-3 -3 -12 -4
-19 -1 -8 3 -5 6 6 6 11 1 17 -2 13 -5z"/>
<path d="M1368 5083 c7 -3 16 -2 19 1 4 3 -2 6 -13 5 -11 0 -14 -3 -6 -6z"/>
<path d="M1955 4520 c-3 -6 1 -7 9 -4 18 7 21 14 7 14 -6 0 -13 -4 -16 -10z"/>
<path d="M3767 5579 c4 -13 8 -18 11 -10 2 7 -1 18 -6 23 -8 8 -9 4 -5 -13z"/>
<path d="M3747 5493 c-3 -16 -8 -41 -11 -58 -4 -22 -3 -26 4 -14 11 18 25 99
17 99 -2 0 -7 -12 -10 -27z"/>
<path d="M3401 4865 c24 -13 44 -11 34 4 -2 5 -17 9 -31 9 l-27 0 24 -13z"/>
<path d="M4179 4804 c-18 -5 -39 -45 -39 -73 0 -46 81 -79 114 -45 56 55 2
139 -75 118z"/>
<path d="M6485 4785 c-31 -30 -32 -65 -2 -93 30 -28 68 -28 95 1 29 30 28 62
-3 92 -31 32 -59 32 -90 0z"/>
<path d="M4916 4803 c-3 -3 -6 -17 -6 -30 0 -20 5 -23 34 -23 33 0 51 17 38
37 -9 13 -57 25 -66 16z"/>
<path d="M5631 4750 c-10 -29 -9 -30 19 -30 27 0 28 1 17 30 -6 17 -14 30 -18
30 -4 0 -12 -13 -18 -30z"/>
<path d="M7971 4749 c-14 -42 -15 -41 12 -33 29 9 29 8 21 38 -8 35 -20 33
-33 -5z"/>
</g>
</svg>
